<svg xmlns="http://www.w3.org/2000/svg" xmlns:xlink="http://www.w3.org/1999/xlink" preserveAspectRatio="xMidYMid meet" version="1.0" viewBox="-1.3 -0.1 296.4 295.1" zoomAndPan="magnify" style="fill: rgb(0, 0, 0);" original_string_length="1916" width="27.62063352369291px" height="27.520194856334026px"><linearGradient xmlns:xlink="http://www.w3.org/1999/xlink" gradientUnits="userSpaceOnUse" id="__id3_s8g32tiwl" x1="0" x2="295.01" xlink:actuate="onLoad" xlink:show="other" xlink:type="simple" y1="147.501" y2="147.501"><stop offset="0" style="stop-color: rgb(255, 222, 89);"/><stop offset="1" style="stop-color: rgb(255, 222, 89);"/></linearGradient><path d="M290.388,4.629c-3.101-3.1-7.335-4.762-11.942-4.621L119.154,4.215 c-8.041,0.218-15.554,5.662-18.696,13.546c-2.669,6.695-1.418,13.764,3.264,18.447l19.855,19.855l-57.801,1.525 c-8.041,0.22-15.555,5.666-18.695,13.552c-2.667,6.695-1.414,13.762,3.266,18.441l12.577,12.577l-42.85,1.132 c-8.041,0.22-15.554,5.664-18.694,13.55c-2.667,6.695-1.416,13.762,3.265,18.443l155.069,155.068 c3.055,3.055,7.125,4.65,11.444,4.65c2.309,0,4.69-0.456,7.026-1.387c7.883-3.147,13.319-10.664,13.525-18.697l1.134-42.838 l12.574,12.574c3.055,3.053,7.123,4.648,11.442,4.648c2.31,0,4.692-0.456,7.028-1.389c7.882-3.149,13.317-10.666,13.523-18.697 l1.53-57.789l19.849,19.849c3.055,3.055,7.125,4.65,11.445,4.65c2.309,0,4.69-0.456,7.026-1.387 c7.883-3.147,13.318-10.666,13.524-18.699l4.217-159.274C295.125,11.967,293.486,7.729,290.388,4.629z M66.898,77.682l76.286-2.013 l23.744,23.743l-76.285,2.014L66.898,77.682z M220.071,124.106l-49.168-49.168l50.506-1.332L220.071,124.106z M173.974,184.758 l-63.724-63.725l65.457-1.728L173.974,184.758z M171.616,273.802L21.197,123.384l61.334-1.619l90.709,90.709L171.616,273.802z M217.317,228.102l-23.739-23.739l2.019-76.28l23.739,23.739L217.317,228.102z M270.692,174.726l-31.016-31.016l1.953-73.769 c0.122-4.601-1.519-8.841-4.62-11.941c-3.1-3.1-7.358-4.713-11.938-4.617l-73.775,1.947l-31.023-31.023l154.51-4.078 L270.692,174.726z" style="fill: url(&quot;#__id3_s8g32tiwl&quot;);"/></svg>